X Lossless Decoder version 20110417 (131.0)

XLD extraction logfile from 2011-04-26 02:30:39 +0900

angelicalbite / demo

Used drive : MATSHITA DVD-R   UJ-868 (revision KB19)

Ripper mode             : CDParanoia III 10.2
Disable audio cache     : OK for the drive with a cache less than 2750KiB
Make use of C2 pointers : NO
Read offset correction  : 102
Max retry count         : 100
Gap status              : Analyzed, Appended

TOC of the extracted CD
     Track |   Start  |  Length  | Start sector | End sector 
    ---------------------------------------------------------
        1  | 00:00:00 | 03:33:37 |         0    |    16011   
        2  | 03:33:37 | 03:53:21 |     16012    |    33507   
        3  | 07:26:58 | 04:05:00 |     33508    |    51882   
        4  | 11:31:58 | 02:30:31 |     51883    |    63163   

AccurateRip Summary
    Disc not found in AccurateRip DB.

All Tracks
    Filename : /Users/m4c/Public/flac/demo.flac
    CRC32 hash             : 4223DBDD
    CRC32 hash (skip zero) : A3FEEC64
    Statistics
        Read error                           : 0
        Skipped (treated as error)           : 0
        Edge jitter error (maybe fixed)      : 1
        Atom jitter error (maybe fixed)      : 0
        Drift error (maybe fixed)            : 0
        Dropped bytes error (maybe fixed)    : 0
        Duplicated bytes error (maybe fixed) : 1

Track 01
    Pre-gap length : 00:02:00

    CRC32 hash             : 2E399AEC
    CRC32 hash (skip zero) : AC0ABEB8
    AccurateRip signature  : 1770F289
        ->Track not present in AccurateRip database.
    Statistics
        Read error                           : 0
        Skipped (treated as error)           : 0
        Edge jitter error (maybe fixed)      : 1
        Atom jitter error (maybe fixed)      : 0
        Drift error (maybe fixed)            : 0
        Dropped bytes error (maybe fixed)    : 0
        Duplicated bytes error (maybe fixed) : 1

Track 02
    Pre-gap length : 00:02:00

    CRC32 hash             : 6E7E266A
    CRC32 hash (skip zero) : 0C735653
    AccurateRip signature  : 21DAC399
        ->Track not present in AccurateRip database.
    Statistics
        Read error                           : 0
        Skipped (treated as error)           : 0
        Edge jitter error (maybe fixed)      : 0
        Atom jitter error (maybe fixed)      : 0
        Drift error (maybe fixed)            : 0
        Dropped bytes error (maybe fixed)    : 0
        Duplicated bytes error (maybe fixed) : 0

Track 03
    Pre-gap length : 00:02:00

    CRC32 hash             : 7B180CDC
    CRC32 hash (skip zero) : AD7ED2D7
    AccurateRip signature  : 82F95F0D
        ->Track not present in AccurateRip database.
    Statistics
        Read error                           : 0
        Skipped (treated as error)           : 0
        Edge jitter error (maybe fixed)      : 0
        Atom jitter error (maybe fixed)      : 0
        Drift error (maybe fixed)            : 0
        Dropped bytes error (maybe fixed)    : 0
        Duplicated bytes error (maybe fixed) : 0

Track 04
    Pre-gap length : 00:02:00

    CRC32 hash             : 54829485
    CRC32 hash (skip zero) : 27B88021
    AccurateRip signature  : 0D181481
        ->Track not present in AccurateRip database.
    Statistics
        Read error                           : 0
        Skipped (treated as error)           : 0
        Edge jitter error (maybe fixed)      : 0
        Atom jitter error (maybe fixed)      : 0
        Drift error (maybe fixed)            : 0
        Dropped bytes error (maybe fixed)    : 0
        Duplicated bytes error (maybe fixed) : 0

No errors occurred

End of status report
